<svg xmlns="http://www.w3.org/2000/svg" width="185.203" height="304.354" viewBox="0 0 185.203 304.354">
  <path id="hand-peace-expanded" d="M194.6,121.307a24.017,24.017,0,0,0-22.342-24.747,23.624,23.624,0,0,0-18.731,5.939,25.381,25.381,0,0,0-30.165-7.944l5.19-64.132A27.941,27.941,0,0,0,72.88,25.531L68.73,75.323,65.558,38.977A28.13,28.13,0,1,0,9.516,43.92L19.783,160.451a6.345,6.345,0,0,0,6.314,5.787h.565a6.345,6.345,0,0,0,5.762-6.872L22.162,42.822a15.443,15.443,0,1,1,30.765-2.729L62.556,150.54a6.345,6.345,0,0,0,6.345,5.793h0a6.345,6.345,0,0,0,6.307-5.819l10.3-123.892a15.251,15.251,0,1,1,30.381,2.716l-7.4,91.372-1.269,15.229v.812l-1.269,15.47c0,.146.051.273.044.419l-.558,6.345c-.063.755.038,1.485.044,2.234a29.068,29.068,0,0,0-17.031,1.624L26.851,195.56c-10.076,4.283-25.14,16.5-12.729,50.585a459.716,459.716,0,0,0,19.2,41.879,30.876,30.876,0,0,0,13.661,13.9,23.046,23.046,0,0,0,9.784,2.462h51.9A83.314,83.314,0,0,0,191.8,221.265V156.9a6.063,6.063,0,0,0-.222-1.123Zm-23.478-12.126A11.345,11.345,0,0,1,181.9,120.539l-3.071,35.28v2.386a11.878,11.878,0,1,1-23.668-2.05l1.707-20.464a6.417,6.417,0,0,0,0-1.047l1.117-15.229.051-.635a11.466,11.466,0,0,1,13.135-9.6Zm-49.411,5.679a11.352,11.352,0,0,1,11.466-9.708,12.807,12.807,0,0,1,1.618.1,11.339,11.339,0,0,1,10.743,11.364l-1.2,13.814v.057l-2.462,31.65a11.947,11.947,0,1,1-23.8-2.088l1.8-20.768v-1.777l1.466-18.04ZM108.642,291.7H56.96a10.152,10.152,0,0,1-4.232-1.091,18.262,18.262,0,0,1-8.084-8.3,446.256,446.256,0,0,1-18.662-40.737c-10.064-27.627,1.9-32.71,6.345-34.62l61.549-32.678a15.4,15.4,0,0,1,11.453,28.592L67.315,220.224a6.348,6.348,0,1,0,5.273,11.548L110.394,214.5a28.11,28.11,0,0,0,17.1-28.884,3.394,3.394,0,0,1,.349.07c.7.057,1.383.082,2.069.082a24.709,24.709,0,0,0,20.3-10.844,24.455,24.455,0,0,0,14.594,6.828c.692.057,1.383.089,2.062.089a24.188,24.188,0,0,0,12.208-3.363v43.059a70.534,70.534,0,0,1-70.439,70.16Z" transform="translate(-9.406 -0.035)" fill="#4e5054"/>
</svg>
